<svg viewBox="0 0 1748 1028" fill="none" xmlns="http://www.w3.org/2000/svg"><g clip-path="url(#a)"><path d="M1265.63 565.412c-329.486 235.348-772.298 88.911-772.298 88.911 65.213-11.852 261.408-88.911 261.408-88.911s-141.807-15.267-77.551-131.998C822.597 169.256 1227.32-46.433 1445.76 9.444c285.85-116.72 315.67 319.387 298.34 372.618-35.9-106.462-49.41-311.529-612.09-88.129 369.3-102.352 463.11 36.132 133.62 271.479Z" fill="url(#b)" fill-opacity=".97"/><g filter="url(#c)"><path d="M1090.99 684.701c557.22-419.209 387.86-520.671 52.21-388.708 146-30.794 250.45-35.401 211.61 36.948-24.02 44.76-98.21 172.346-558.615 400.072 87.779-10.359 294.795-48.312 294.795-48.312Z" fill="url(#d)"/></g><g filter="url(#e)"><path d="M1063.08 756.485c65.49-47.528 118.99-41.433 285.3-228.534-115.82 239.073-178.39 276.052-178.39 276.052l-106.91-47.518Z" fill="url(#f)" fill-opacity=".6"/></g><path d="M1106.19 340.766c84.06-41.128 189.14-53.326 131.64 19.391-62.31 78.805-218 181.065-295.355 213.707" stroke="#FFF73A" stroke-width="2" stroke-linecap="round" stroke-linejoin="round"/><path d="M1147.64 322.466c257.26-73.792 86.46 103.719-85.3 239.923" stroke="#FFF73A" stroke-width=".5" stroke-linecap="round" stroke-linejoin="round"/><path d="M1178.39 545.031c53-59.871 282.51-204.855 215.94-243.283-68.52-39.556-287.27 28.803-361.04 75.903" stroke="#FFF73A" stroke-width="2" stroke-linecap="round" stroke-linejoin="round" stroke-dasharray=".3 28"/><path fill-rule="evenodd" clip-rule="evenodd" d="M1254.57 287.67c.1.519-.26 1.022-.8 1.123-.16.029-.31.059-.47.089-.55.102-1.07-.236-1.17-.755-.11-.519.25-1.023.79-1.125l.48-.09c.54-.101 1.07.238 1.17.758Zm74.05 6.708c.29-.455.9-.604 1.37-.333.08.04.15.081.22.121.07.045.15.09.23.136.47.276.61.865.32 1.317-.29.451-.9.593-1.37.318-.08-.043-.15-.086-.22-.128l-.21-.118a.94.94 0 0 1-.34-1.313Zm-148.56 16.834c.22.484-.01 1.049-.52 1.264l-.45.189c-.5.215-1.09-.003-1.31-.486a.951.951 0 0 1 .51-1.265l.45-.19c.51-.214 1.1.004 1.32.488Zm-69.99 34.292a.942.942 0 0 1-.37 1.309l-.42.231a1.03 1.03 0 0 1-1.37-.35c-.27-.458-.1-1.044.38-1.309l.42-.232c.48-.264 1.09-.107 1.36.351Zm-66.79 39.769a.94.94 0 0 1-.28 1.329l-.2.126c-.46.294-1.08.176-1.39-.264a.942.942 0 0 1 .29-1.329l.19-.126c.47-.294 1.09-.176 1.39.264Zm312.72-16.85c.55-.007 1 .416 1 .945.01.174.01.349.01.523 0 .529-.44.963-.99.97-.56.007-1.01-.417-1.01-.946v-.284c0-.079 0-.157-.01-.236 0-.529.44-.964 1-.972Zm-7.35 81.669c.54.08.92.568.83 1.091l-.08.509c-.09.523-.6.882-1.15.802a.966.966 0 0 1-.83-1.092l.09-.507c.08-.523.59-.882 1.14-.803Zm-16.56 80.558c.54.117.87.63.75 1.146l-.12.498c-.13.516-.67.839-1.2.722-.54-.117-.88-.63-.75-1.146l.12-.498c.12-.516.66-.839 1.2-.722Zm-21.24 79.603c.53.139.84.666.7 1.176l-.15.493c-.14.51-.7.811-1.23.671-.53-.139-.84-.666-.69-1.176l.14-.492c.15-.511.7-.812 1.23-.672Zm-24.28 78.716c.53.156.82.692.66 1.198l-.08.233c-.17.506-.73.79-1.25.634-.53-.156-.82-.692-.66-1.197l.08-.234c.16-.505.72-.789 1.25-.634Z" fill="#FFF73A"/><path d="M1266.03 553.895c38.61-56.289 221.89-223.544 155.32-261.973-68.52-39.556-343.76 46.501-422.666 109.401" stroke="#FFF73A" stroke-width="2" stroke-linecap="round" stroke-linejoin="round" stroke-dasharray=".3 28"/><path d="M1180.92 612.72c104.38-83.988 281.62-275.818 215.05-314.247-55.59-32.089-265.82 7.517-344.72 70.417" stroke="#FFF73A" stroke-width="2" stroke-linecap="round" stroke-linejoin="round" stroke-dasharray=".3 28"/><path d="M1173.31 628.205c122.63-104.196 274.03-284.302 207.47-322.731-68.53-39.556-294.35 28.123-373.26 91.023" stroke="#FFF73A" stroke-width="2" stroke-linecap="round" stroke-linejoin="round" stroke-dasharray=".3 28"/><path d="M1259.32 556.581c38.61-56.289 117.86-232.823 51.29-271.252-68.52-39.556-231.13 53.279-310.03 116.179" stroke="#FFF73A" stroke-width="2" stroke-linecap="round" stroke-linejoin="round" stroke-dasharray=".3 28"/><path d="M1174.89 637.458c59.77-60.592 265.54-297.282 198.97-335.711-68.52-39.556-288.33 32.758-367.23 95.659" stroke="#FFF73A" stroke-width="2" stroke-linecap="round" stroke-linejoin="round" stroke-dasharray=".3 28"/><path d="M1254.66 548.326c38.61-56.29 117.85-232.824 51.28-271.252-68.52-39.556-224.11 59.705-303.01 122.605" stroke="#FFF73A" stroke-width="2" stroke-linecap="round" stroke-linejoin="round" stroke-dasharray=".3 28"/><path d="M1255.16 542.63c38.61-56.29 117.86-232.824 51.29-271.253-68.52-39.556-234.94 73.303-313.845 136.204" stroke="#FFF73A" stroke-width="2" stroke-linecap="round" stroke-linejoin="round" stroke-dasharray=".3 28"/><path d="M1054 406.129c-22.27 7.007-8.3-5.275 29.08-27.82 37.37-22.544 83.73-51.343 46.82-20.526-36.91 30.817-115.56 83.148-164.416 85.916-32.552 1.844 26.427-47.245 72.796-67.959" stroke="#FFF73A" stroke-width="2" stroke-linecap="round" stroke-linejoin="round" stroke-dasharray=".3 28"/><path d="M1130.92 329.161c122.21-39.351 226.99-58.75 242.94-17.588 15.95 41.162-179.21 207.412-278.29 289.293" stroke="#FFF73A" stroke-width="3" stroke-linecap="round" stroke-linejoin="round" stroke-dasharray="1 17"/><path d="M1120.92 334.161c122.21-39.351 208.43-47.562 224.37-6.4 15.95 41.162-164.97 191.372-224.37 239.365" stroke="#FFF73A" stroke-width="2" stroke-linecap="round" stroke-linejoin="round" stroke-dasharray="1 17"/><path d="M1123.55 404.862c-176.175 88.865-289.149 78.316-188.686-8.435 194.156-167.655 646.916-258.108 800.926-88.477" stroke="url(#g)" stroke-width="2" stroke-linecap="round" stroke-linejoin="round"/><path d="M1096.49 380.529c-57.52 49.951-240.485 104.203-138.623 18.966 234.363-196.115 552.053-190.018 671.223-40.528" stroke="#FFF73A" stroke-linecap="round" stroke-linejoin="round" stroke-dasharray=".3 16"/><path d="M1092.64 382.349c-57.53 49.951-238.4 106.37-136.538 21.132 234.368-196.115 552.048-190.017 671.228-40.528" stroke="#FFF73A" stroke-linecap="round" stroke-linejoin="round" stroke-dasharray=".3 16"/><path d="M1097.4 375.126c-57.52 49.951-226.072 96.671-124.209 11.434 234.369-196.116 618.129-233.888 709.649-30.833" stroke="#FFF73A" stroke-linecap="round" stroke-linejoin="round" stroke-dasharray=".3 16"/><path d="M1101.94 375.209c-57.53 49.951-243.143 113.063-170.591 42.897 203.581-196.884 584.201-261.663 703.371-112.173" stroke="#FFF73A" stroke-width=".3" stroke-linecap="round" stroke-linejoin="round"/><path d="M1105.93 372.691c-57.53 49.952-240.891 115.322-170.593 42.898C1147.25 197.27 1656.17 138.667 1706.1 243.291" stroke="#FFBD00" stroke-width=".3" stroke-linecap="round" stroke-linejoin="round"/><path d="M1090.41 384.207c-57.53 49.951-245.36 85.237-143.497 0 180.537-151.071 434.137-219.291 730.837-181.113" stroke="#FFF73A" stroke-linecap="round" stroke-linejoin="round" stroke-dasharray=".3 16"/><path d="M1081.06 389.681c-57.53 49.952-236.869 85.237-135.007 0 234.367-196.115 608.867-242.378 714.467-242.378" stroke="url(#h)" stroke-width="2" stroke-linecap="round" stroke-linejoin="round" stroke-dasharray=".3 16"/><path d="M1078.06 382.682c-57.53 49.952-223.387 99.178-121.524 13.941C1190.9 200.508 1779.66 120.864 1491.9 567.286" stroke="#fff" stroke-linecap="round" stroke-linejoin="round" stroke-dasharray=".3 35"/><path d="M1096.64 376.349c-57.53 49.952-280.532 120.086-180.2 15.642 211.71-220.384 621.13-319.212 621.13-319.212" stroke="#FFF73A" stroke-linecap="round" stroke-linejoin="round" stroke-dasharray=".3 16"/><path d="M1099.64 375.35c-57.53 49.951-238.4 106.37-136.538 21.132C1197.47 200.367 1481.76 82.797 1654.06 37.603" stroke="#FFF73A" stroke-linecap="round" stroke-linejoin="round" stroke-dasharray=".3 16"/><path d="M1081.04 383.656c-65.11 50.239-226.267 96.92-124.405 11.683 234.365-196.116 749.925-232.478 639.485 0" stroke="url(#i)" stroke-width="2" stroke-linecap="round" stroke-linejoin="round" stroke-dasharray=".4 29"/><path d="M1092.53 382.72c-57.53 49.951-239.386 103.005-137.524 17.768 234.364-196.115 787.324-262.514 563.334 124.8" stroke="#FFF73A" stroke-linecap="round" stroke-linejoin="round" stroke-dasharray=".3 16"/><path d="M1112.91 366.927c-57.52 49.952-260.859 85.237-158.997 0C1188.28 170.812 1612.28 50.721 1612.28 50.721" stroke="#FFF73A" stroke-linecap="round" stroke-linejoin="round" stroke-dasharray=".3 48"/><path d="M1033.55 395.892c80.23-74.408 202.71-93.506 146.42-26.697-39.26 46.594-140.82 125.623-376.148 213.798" stroke="url(#j)" stroke-linecap="round" stroke-linejoin="round"/><path fill-rule="evenodd" clip-rule="evenodd" d="M1295.05 238.93c.05.792-.58 1.475-1.4 1.527l-.3.018c-.83.052-1.54-.548-1.59-1.34-.05-.792.58-1.476 1.41-1.528l.3-.018c.83-.051 1.54.549 1.58 1.341Zm115.36 60.969c-.01-.794.66-1.447 1.49-1.458l.3-.004c.82-.011 1.5.623 1.51 1.417.01.793-.66 1.445-1.49 1.456l-.29.004c-.83.012-1.51-.622-1.52-1.415Zm-104.17 172.086c.09.788-.5 1.501-1.33 1.591l-.29.032c-.83.091-1.57-.475-1.66-1.263-.09-.789.5-1.501 1.33-1.592l.3-.032c.82-.091 1.56.475 1.65 1.264Zm29.55-233.606c.03-.793.73-1.412 1.56-1.383l.3.011c.83.03 1.47.697 1.43 1.49-.03.793-.73 1.411-1.56 1.381l-.29-.01c-.83-.03-1.48-.696-1.44-1.489Zm-33.29 149.073c.12.783-.43 1.522-1.25 1.65l-.29.046c-.82.129-1.59-.402-1.72-1.185-.13-.783.43-1.522 1.24-1.651l.3-.046c.82-.128 1.59.403 1.72 1.186Zm171.59-39.281c.08-.79.81-1.373 1.64-1.302l.29.026c.83.072 1.43.771 1.35 1.561-.08.791-.81 1.373-1.63 1.301l-.3-.025c-.82-.072-1.43-.77-1.35-1.561Zm-123.59-88.432c.17.777-.35 1.539-1.17 1.704l-.29.059c-.81.166-1.6-.33-1.77-1.106-.17-.776.35-1.539 1.16-1.704l.3-.06c.81-.165 1.6.331 1.77 1.107Zm-251.85 238.038c.13-.785.89-1.329 1.71-1.215l.29.041c.82.114 1.39.844 1.26 1.629-.12.785-.89 1.329-1.7 1.214l-.3-.04c-.82-.114-1.38-.843-1.26-1.629Zm90.53-209.017c.21.768-.28 1.553-1.08 1.754l-.29.071c-.8.201-1.62-.259-1.82-1.026-.21-.768.28-1.553 1.08-1.754l.29-.072c.8-.201 1.62.26 1.82 1.027Zm-167.24-21.72c.17-.778.96-1.281 1.77-1.124l.29.056c.82.158 1.34.917 1.17 1.695-.17.777-.97 1.28-1.78 1.122l-.29-.056c-.81-.158-1.33-.916-1.16-1.693Zm212.74-50.21c.24.758-.2 1.562-1 1.797l-.28.084c-.79.235-1.63-.189-1.87-.947-.24-.758.2-1.563 1-1.798l.28-.084c.79-.235 1.63.189 1.87.948Zm31.95 109.146c.28.747-.13 1.57-.91 1.837l-.28.096c-.78.268-1.64-.121-1.92-.868-.27-.747.14-1.569.92-1.837l.28-.097c.78-.267 1.64.122 1.91.869Zm50.66 6.98c.21-.768 1.03-1.227 1.84-1.026l.28.072c.8.202 1.28.988 1.06 1.755-.21.768-1.03 1.227-1.83 1.025l-.29-.072c-.8-.201-1.27-.987-1.06-1.754Zm-199.79-40.193c.31.735-.06 1.573-.83 1.872l-.27.107c-.77.299-1.65-.054-1.96-.789-.3-.734.07-1.573.84-1.872l.27-.108c.77-.299 1.65.054 1.95.79Zm355.12 134.382c.26-.755 1.11-1.167 1.9-.922l.28.088c.79.246 1.21 1.058.95 1.812-.26.755-1.11 1.167-1.89.921l-.28-.088c-.79-.246-1.22-1.056-.96-1.811Zm-339.94-12.968c.34.722 0 1.574-.76 1.903l-.27.118c-.75.329-1.64.012-1.98-.71-.34-.722 0-1.575.75-1.904l.27-.118c.76-.33 1.65-.011 1.99.711Zm331.94-151.049c.31-.739 1.18-1.102 1.95-.812l.27.104c.77.291 1.15 1.125.84 1.864-.31.738-1.18 1.101-1.95.81l-.27-.103c-.77-.29-1.15-1.124-.84-1.863Zm-406.24 49.058c.37.708.07 1.573-.67 1.931l-.26.127c-.74.359-1.64.076-2.01-.632-.37-.708-.07-1.573.67-1.931l.26-.128c.74-.359 1.64-.075 2.01.633Zm471.51-129.724c.35-.72 1.25-1.031 2-.697l.27.121c.74.335 1.06 1.19.71 1.909-.35.719-1.25 1.03-2 .695l-.26-.119c-.75-.335-1.07-1.19-.72-1.909Zm-294.5 108.295c.4.693.13 1.568-.59 1.954l-.26.137c-.73.386-1.64.137-2.04-.556-.4-.694-.13-1.569.59-1.955l.26-.137c.73-.386 1.64-.137 2.04.557Zm302.85 55.257c.4-.697 1.31-.954 2.03-.575l.26.136c.73.38.99 1.253.59 1.95-.4.696-1.31.953-2.04.573l-.25-.135c-.73-.38-.99-1.253-.59-1.949Zm-360.85-23.291c.42.678.19 1.562-.52 1.974l-.25.145c-.71.413-1.63.197-2.06-.481-.42-.678-.19-1.562.52-1.974l.25-.147c.71-.411 1.63-.196 2.06.483Zm383.85-71.861a1.542 1.542 0 0 1 2.07-.447l.25.153c.7.425.9 1.313.46 1.983-.45.671-1.38.87-2.07.445l-.25-.151c-.7-.424-.91-1.312-.46-1.983Zm-495.08 40.36c.45.663.26 1.554-.44 1.991l-.25.157c-.69.437-1.62.254-2.07-.408-.46-.663-.26-1.554.43-1.991l.25-.158c.7-.437 1.63-.254 2.08.409Zm475.52 11.937a1.55 1.55 0 0 1 2.1-.314l.24.169c.67.468.81 1.367.32 2.008-.5.64-1.44.78-2.1.312l-.24-.167a1.395 1.395 0 0 1-.32-2.008Zm-498.66 19.394c.48.647.32 1.544-.36 2.004l-.24.165c-.68.46-1.61.31-2.09-.337-.48-.646-.32-1.543.36-2.004l.24-.165c.68-.461 1.62-.309 2.09.337Zm-121.574 19.325c.5.63.37 1.532-.29 2.015l-.235.172c-.66.482-1.601.363-2.101-.267-.501-.63-.372-1.532.288-2.014l.236-.173c.66-.483 1.601-.363 2.102.267Zm294.124 29.167a1.555 1.555 0 0 1 2.12-.176l.22.184c.63.511.71 1.418.17 2.025-.53.607-1.48.684-2.11.173l-.22-.182a1.393 1.393 0 0 1-.18-2.024Zm-221.151-12.568a1.398 1.398 0 0 1-.219 2.022l-.227.178c-.643.504-1.588.415-2.11-.198a1.399 1.399 0 0 1 .217-2.023l.229-.179c.643-.503 1.588-.414 2.11.2Zm120.451-4.043c.55.587.5 1.496-.11 2.03l-.11.092c-.62.533-1.56.49-2.12-.098-.55-.588-.5-1.496.11-2.03l.11-.089a1.55 1.55 0 0 1 2.12.095Zm460.49-24.286c.58-.57 1.53-.585 2.12-.033l.21.199c.59.552.6 1.462.02 2.031-.58.57-1.52.584-2.12.031l-.21-.196a1.396 1.396 0 0 1-.02-2.032Zm-597.881 41.98a1.396 1.396 0 0 1-.15 2.028l-.23.193a1.546 1.546 0 0 1-2.116-.132 1.397 1.397 0 0 1 .148-2.028l.232-.194c.625-.523 1.573-.464 2.116.133Zm91.721 15.878c.46.655.29 1.549-.4 1.998l-.24.16c-.69.448-1.62.279-2.09-.376-.46-.655-.28-1.549.41-1.997l.24-.158a1.537 1.537 0 0 1 2.08.373Zm-71.45 100.228a1.544 1.544 0 0 1 2.117.114l.193.212c.55.593.49 1.501-.127 2.029a1.545 1.545 0 0 1-2.117-.116l-.195-.21a1.396 1.396 0 0 1 .129-2.029Zm141.89-113.394c.41.689.15 1.567-.57 1.961l-.25.137c-.72.393-1.64.152-2.04-.537-.41-.69-.16-1.567.57-1.96l.25-.136c.72-.394 1.63-.154 2.04.535Zm-207.957 13.142c.597.547.617 1.457.043 2.032l-.183.184a1.546 1.546 0 0 1-2.12.055 1.394 1.394 0 0 1-.048-2.031l.187-.188a1.548 1.548 0 0 1 2.121-.052Zm96.027 1.88c.37.711.06 1.573-.69 1.924l-.26.123c-.74.351-1.64.058-2-.654-.37-.712-.06-1.573.69-1.924l.26-.122c.74-.351 1.64-.059 2 .653Zm92.84 89.188c.66-.484 1.6-.366 2.1.262l.09.114c.51.629.38 1.531-.28 2.014-.66.484-1.6.366-2.1-.263l-.09-.112a1.4 1.4 0 0 1 .28-2.015Zm-71.28-60.732c.32.73-.04 1.575-.8 1.888l-.27.11c-.76.312-1.64-.026-1.96-.755-.33-.73.03-1.575.79-1.887l.27-.109c.76-.313 1.64.024 1.97.753Zm-116.79 59.899c.748.337 1.065 1.193.709 1.911-.044.089-.087.177-.128.264-.348.722-1.239 1.041-1.991.712-.752-.329-1.08-1.182-.733-1.904l.144-.294c.356-.718 1.251-1.027 1.999-.689Zm88.49-73.771c.28.745-.12 1.571-.9 1.845l-.27.095c-.78.273-1.64-.11-1.92-.855-.29-.745.12-1.57.9-1.843l.27-.095c.78-.274 1.64.108 1.92.853Zm-20.5 6.624c.23.761-.23 1.561-1.027 1.786l-.284.08c-.795.224-1.627-.212-1.857-.973-.23-.761.228-1.56 1.024-1.784l.281-.079c.796-.225 1.623.209 1.863.97Zm-55.309 16.627c.149.78-.391 1.531-1.206 1.678l-.292.052c-.815.145-1.595-.37-1.743-1.15-.147-.78.394-1.53 1.209-1.675l.287-.052c.815-.146 1.596.367 1.745 1.147Zm-28.69 21.017c.103-.788.854-1.349 1.675-1.254l.266.03c.822.088 1.411.799 1.315 1.588-.096.788-.841 1.356-1.664 1.268a126.86 126.86 0 0 1-.291-.033c-.822-.095-1.405-.811-1.301-1.599Z" fill="#FFF73A"/><path d="M995.828 470.352c-204.34 65.541-198.362-57.58 120.362-253.081 318.72-195.5 567.63-194.421 567.63-194.421" stroke="#FFF73A" stroke-width="2" stroke-linecap="round" stroke-linejoin="round"/><path d="M1001.31 467.495c-204.339 65.541-136.775-99.242 175.6-252.558C1489.28 61.62 1630.57 69.164 1630.57 69.164" stroke="#FFF73A" stroke-width=".4" stroke-linecap="round" stroke-linejoin="round"/><path d="M1061.1 376.536c100.49-70.798 197.14-107.278 213.85-86.827 39.09 47.817-155.85 242.91-500.839 283.4" stroke="#FFF73A" stroke-width="2" stroke-linecap="round" stroke-linejoin="round" stroke-dasharray=".2 15"/><path d="M1025.04 384.163c100.5-70.798 213.1-93.166 229.81-72.714 39.09 47.817-236.93 206.725-581.916 247.214" stroke="#FFF73A" stroke-width="1.2" stroke-linecap="round" stroke-linejoin="round" stroke-dasharray=".2 23"/><path d="M1068.04 374.163c100.5-70.798 213.1-93.166 229.81-72.714 39.09 47.817-236.93 206.725-581.916 247.214" stroke="#FFF73A" stroke-width="1.2" stroke-linecap="round" stroke-linejoin="round" stroke-dasharray=".2 23"/><path d="M907.631 333.553c97.889-83.91 338.529-268.518 517.989-335.676" stroke="#FFBD00" stroke-width="2" stroke-linecap="round" stroke-linejoin="round" stroke-dasharray=".2 34"/><path d="M875.877 360.555C996.793 198.299 1187.08 71.698 1304.38 7.875" stroke="#FFBD00" stroke-width="2" stroke-linecap="round" stroke-linejoin="round" stroke-dasharray=".2 34"/><path d="M836.82 411.562c120.916-162.256 331.39-289.005 448.7-352.828" stroke="#FFF73A" stroke-width="2" stroke-linecap="round" stroke-linejoin="round" stroke-dasharray=".2 74"/><path d="M854.82 386.562c120.916-162.256 331.39-289.005 448.7-352.828" stroke="#FFF73A" stroke-width="2" stroke-linecap="round" stroke-linejoin="round" stroke-dasharray=".2 74"/><path d="M832.967 417.467C953.883 255.212 1210.47 87.823 1327.78 24" stroke="#FFF73A" stroke-width="2" stroke-linecap="round" stroke-linejoin="round" stroke-dasharray=".2 74"/><path d="M951.967 364.467C1072.88 202.212 1329.47 34.823 1446.78-29" stroke="#FFF73A" stroke-width="2" stroke-linecap="round" stroke-linejoin="round" stroke-dasharray=".2 74"/><path d="M1302.25 295.209c108.81-22.453 24.09 30.354-39.17 225.11" stroke="#FFF73A" stroke-width="1.2" stroke-linecap="round" stroke-linejoin="round" stroke-dasharray=".2 34"/><path d="M1260.74 294.971c108.82-22.453 42.6 170.138-180.51 331.866" stroke="#FFF73A" stroke-width="1.2" stroke-linecap="round" stroke-linejoin="round" stroke-dasharray=".2 34"/><path d="M1188.9 311.199c36.43-13.084 100.27-23.387 125.61-1.181 37.25 32.645-49.04 165.535-89.75 228.028" stroke="#FFF73A" stroke-width="2" stroke-linecap="round" stroke-linejoin="round" stroke-dasharray=".2 34"/><path d="M1176.9 314.199c36.43-13.084 100.27-23.387 125.61-1.181 37.25 32.645-49.04 165.535-89.75 228.028" stroke="#FFF73A" stroke-width="2" stroke-linecap="round" stroke-linejoin="round" stroke-dasharray=".2 34"/><path d="M1149.24 321.265c36.43-13.083 142.98-36.732 165.55-11.936 35.26 38.737-67.03 173.328-109.92 219.332" stroke="#A67DFF" stroke-width=".2" stroke-linecap="round" stroke-linejoin="round"/><path d="M1323.84 290.111c191.98 0-18.89 205.619-415.828 514.349" stroke="url(#k)" stroke-width="1.2" stroke-linecap="round" stroke-linejoin="round"/><path d="M1092.13 345.989c60.06-36.711 163.07-45.618 196.75-38.994 49.58 9.75 73.34 66.831-109.61 218.62" stroke="#FFF73A" stroke-width=".2" stroke-linecap="round" stroke-linejoin="round"/><path d="M1117.74 314.301c36.43-13.084 100.27-23.387 125.61-1.182 37.25 32.645-46.09 92.16-182.87 209.487" stroke="#FFF73A" stroke-width="2" stroke-linecap="round" stroke-linejoin="round" stroke-dasharray=".2 34"/><path d="M1129.35 330.241c36.43-13.084 86-23.482 115.45-6.54 35.65 20.513 10.95 84.536-125.83 201.863" stroke="#FFF73A" stroke-width="2" stroke-linecap="round" stroke-linejoin="round" stroke-dasharray=".2 44"/><path d="M1121.35 332.241c36.43-13.084 86-23.482 115.45-6.54 35.65 20.513 10.95 84.536-125.83 201.863" stroke="#FFF73A" stroke-linecap="round" stroke-linejoin="round" stroke-dasharray=".2 44"/><path d="M1134.35 313.241c36.43-13.084 86-23.482 115.45-6.54 35.65 20.513 10.95 84.536-125.83 201.863" stroke="#FFF73A" stroke-width="3" stroke-linecap="round" stroke-linejoin="round" stroke-dasharray=".2 44"/><path d="M977.922 434.312c-58.932-4.96 180.198-183.839 351.938-175.694 59.57 2.825-10.52 190.824-115.89 298.69" stroke="#FFF73A" stroke-linecap="round" stroke-linejoin="round" stroke-dasharray=".2 34"/><path d="M982.985 473.708C659.292 594.216 825.503 298.416 1344.91 13.953" stroke="#FFF73A" stroke-width=".2" stroke-linecap="round" stroke-linejoin="round"/><path d="M1013.28 462.09C689.591 582.598 821.384 298.613 1340.79 14.15" stroke="#FFF73A" stroke-width=".2" stroke-linecap="round" stroke-linejoin="round"/><path d="M996.912 469.734C673.219 590.242 830.504 297.416 1349.91 12.954" stroke="#FFF73A" stroke-width=".6" stroke-linecap="round" stroke-linejoin="round"/><path d="M998.454 469.194C690.455 574.857 828.634 321.053 1374.19 20.088" stroke="#FFF73A" stroke-width="1.3" stroke-linecap="round" stroke-linejoin="round"/><path d="M979.985 474.708C656.292 595.217 822.503 299.416 1341.91 14.953" stroke="#FFF73A" stroke-width=".4" stroke-linecap="round" stroke-linejoin="round"/><path d="M978.695 474.818C624.344 600.743 812.539 300.203 1340.62 15.063" stroke="#FFF73A" stroke-width=".1" stroke-linecap="round" stroke-linejoin="round"/><path d="M1015.16 462.81C660.812 588.735 859.199 306.826 1387.28 21.685" stroke="#FFF73A" stroke-width=".3" stroke-linecap="round" stroke-linejoin="round"/><path d="M1033.51 452.089C679.154 578.014 799.893 252.667 1378.14 12.147" stroke="#FFF73A" stroke-width=".3" stroke-linecap="round" stroke-linejoin="round"/><path d="M969.71 473.395c-209.444 81.004-268.984-77.125 208.19-359.868" stroke="#FFF73A" stroke-width="2" stroke-linecap="round" stroke-linejoin="round" stroke-dasharray="1 43"/><path d="M1162.45 318.358c357.12-93.528 196.06 40.129-183.456 443.881" stroke="url(#l)" stroke-width="1.5" stroke-linecap="round" stroke-linejoin="round"/><path d="M1338.95 290.439c106.53 0 141.46 121.908-365.292 574.428" stroke="#FFF73A" stroke-width=".3" stroke-linecap="round" stroke-linejoin="round"/><path d="M1287.8 291.753c213.3-33.986 203.61 82.372-315.036 499.335" stroke="#FFF73A" stroke-width=".3" stroke-linecap="round" stroke-linejoin="round"/><path d="M1325.79 270.828c237.19 20.092 289.31 74.921-79.57 586.88" stroke="#FFF73A" stroke-linecap="round" stroke-linejoin="round" stroke-dasharray=".2 56"/><path d="M1315.22 272.295c237.19 20.092 281.17 98.196-87.71 610.155" stroke="#FFF73A" stroke-linecap="round" stroke-linejoin="round" stroke-dasharray=".2 46"/><path d="M1289.22 274.295c237.19 20.092 281.17 98.196-87.71 610.155" stroke="#FFF73A" stroke-linecap="round" stroke-linejoin="round" stroke-dasharray=".2 46"/><path d="M1313.22 265.295c237.19 20.092 189.3 82.631-179.58 594.59" stroke="#FFF73A" stroke-linecap="round" stroke-linejoin="round" stroke-dasharray=".2 46"/><path d="M1328.25 287.234c237.19 20.093 241.57 107.738-127.32 619.697" stroke="#FFF73A" stroke-linecap="round" stroke-linejoin="round" stroke-dasharray=".2 46"/><path d="M1352 270.078c237.18 20.092 203.81 65.92-142.48 648.911" stroke="#FFF73A" stroke-linecap="round" stroke-linejoin="round" stroke-dasharray=".2 46"/><path d="M1350.65 265.551c237.19 20.092 30.85 233.243-225.6 571.135" stroke="#FFF73A" stroke-width="1.6" stroke-linecap="round" stroke-linejoin="round" stroke-dasharray=".2 46"/><path d="M1340.65 258.551c237.19 20.092 141.25 267.599-115.21 605.491" stroke="#FFF73A" stroke-width="1.6" stroke-linecap="round" stroke-linejoin="round" stroke-dasharray=".2 46"/><path d="M1356.4 250.355c237.18 20.093 76.69 191.234-179.77 529.126" stroke="#FFF73A" stroke-width="1.6" stroke-linecap="round" stroke-linejoin="round" stroke-dasharray=".2 46"/><path d="M1366.97 248.049c237.19 20.092 136.87 232.289-428.267 615.244" stroke="#FFF73A" stroke-width="1.6" stroke-linecap="round" stroke-linejoin="round" stroke-dasharray=".2 46"/><path d="M1324.77 276.791c237.19 20.092 105.97 169.882-150.49 507.774" stroke="#FFF73A" stroke-width="2.6" stroke-linecap="round" stroke-linejoin="round" stroke-dasharray=".2 46"/><path d="M1326.62 263.457c237.18 20.092 95.35 204.035-179.2 507.646" stroke="#FFF73A" stroke-width="3" stroke-linecap="round" stroke-linejoin="round" stroke-dasharray=".2 65"/><path d="M1372.65 236.551c237.19 20.092 68.95 200.814-187.51 538.707" stroke="#FFF73A" stroke-width="1.6" stroke-linecap="round" stroke-linejoin="round" stroke-dasharray=".2 46"/><path d="M1338.65 229.551c237.19 20.092 119 251.95-137.45 589.843" stroke="#FFF73A" stroke-width="1.6" stroke-linecap="round" stroke-linejoin="round" stroke-dasharray=".2 86"/><path d="M1310.87 545.656c.06.912-.67 1.695-1.63 1.749-.95.054-1.76-.642-1.81-1.554-.06-.912.67-1.695 1.63-1.748.95-.054 1.76.641 1.81 1.553ZM1293.08 362.207c.14 2.511-1.87 4.667-4.49 4.815-2.62.149-4.86-1.766-5-4.277-.14-2.511 1.87-4.667 4.49-4.815 2.62-.149 4.86 1.766 5 4.277Z" fill="#fff"/><path d="M1059.08 151.207c.14 2.511-1.87 4.667-4.49 4.815-2.62.149-4.86-1.766-5-4.277-.14-2.511 1.87-4.667 4.49-4.815 2.62-.149 4.86 1.766 5 4.277ZM1570.08 370.207c.14 2.511-1.87 4.667-4.49 4.815-2.62.149-4.86-1.766-5-4.277-.14-2.511 1.87-4.667 4.49-4.815 2.62-.149 4.86 1.766 5 4.277Z" fill="#FFF73A"/><path d="M1388.81 452.637c-1.72 2.511-3.85 3.869-4.76 3.034-.92-.835-.26-3.547 1.45-6.058 1.72-2.511 3.85-3.87 4.77-3.035.91.835.26 3.548-1.46 6.059Z" fill="#17E6E8"/><path d="M1321.75 639.56c.68 2.963-4.87 10.664-8.49 11.591-2.5.637-5.12-1.57-5.12-4.157 0-3.481 7.8-9.916 10.95-9.916 1.67 0 2.29.85 2.66 2.482Z" stroke="#fff" stroke-opacity=".3"/><path d="M1462.02 517.866c.08.999.13 1.87-.1 2.676-.23.777-.73 1.536-1.84 2.257-1.47.943-3.26 1.34-4.65.611-1.22-.635-2.07-1.817-2.18-3.218-.09-1.1.34-2.281 1.11-3.219.77-.937 1.85-1.584 3-1.677 1.26-.101 2.41.031 3.24.444.8.397 1.33 1.059 1.42 2.126Z" stroke="#17E6E8" stroke-opacity=".2"/><path d="M1253.93 495.194c.07 1.334-1.54 2.511-3.6 2.628-2.05.116-3.79-.871-3.86-2.206-.08-1.335 1.53-2.511 3.59-2.628 2.06-.117 3.79.871 3.87 2.206ZM1175.12 507.623c.94 1.045-.34 3.565-2.86 5.627-2.51 2.062-5.31 2.887-6.24 1.841-.93-1.045.35-3.564 2.86-5.626 2.52-2.063 5.31-2.887 6.24-1.842Z" fill="#FFF73A"/><g filter="url(#m)"><path d="M1220.12 497.678c-2.41 2.996-5.29 4.741-6.44 3.898-1.14-.843-.12-3.956 2.29-6.952s5.29-4.741 6.44-3.898c1.14.843.12 3.956-2.29 6.952Z" fill="#fff"/></g><path d="M1381.87 679.656c.06.912-.67 1.695-1.63 1.749-.95.054-1.76-.642-1.81-1.554-.06-.912.67-1.695 1.63-1.748.95-.054 1.76.641 1.81 1.553ZM1186.87 513.656c.06.912-.67 1.695-1.63 1.749-.95.054-1.76-.642-1.81-1.554-.06-.912.67-1.695 1.63-1.748.95-.054 1.76.641 1.81 1.553Z" fill="#fff"/><path d="M1215.22 462.975a.906.906 0 0 1-.87.931c-.51.028-.94-.342-.97-.827-.03-.486.36-.902.87-.931.51-.029.94.342.97.827ZM1116.22 514.975a.906.906 0 0 1-.87.931c-.51.028-.94-.342-.97-.827-.03-.486.36-.902.87-.931.51-.029.94.342.97.827ZM1236.22 504.975a.906.906 0 0 1-.87.931c-.51.028-.94-.342-.97-.827-.03-.486.36-.902.87-.931.51-.029.94.342.97.827Z" fill="#FFBD00"/><path d="M1247.76 450.91c.03.436-.26.806-.65.828-.38.022-.71-.314-.73-.749-.03-.436.26-.806.65-.828.38-.022.71.314.73.749ZM1240.76 464.91c.03.436-.26.806-.65.828-.38.022-.71-.314-.73-.749-.03-.436.26-.806.65-.828.38-.022.71.314.73.749ZM1198.76 488.91c.03.436-.26.806-.65.828-.38.022-.71-.314-.73-.749-.03-.436.26-.806.65-.828.38-.022.71.314.73.749ZM1217.76 466.91c.03.436-.26.806-.65.828-.38.022-.71-.314-.73-.749-.03-.436.26-.806.65-.828.38-.022.71.314.73.749Z" fill="#FFF73A"/><path d="M1237.34 461.288c.04.755-1.03 1.43-2.39 1.507-1.36.077-2.5-.472-2.54-1.228-.04-.755 1.02-1.43 2.39-1.507 1.36-.077 2.49.473 2.54 1.228ZM1343.87 372.656c.06.912-.67 1.695-1.63 1.749-.95.054-1.76-.642-1.81-1.554-.06-.912.67-1.695 1.63-1.748.95-.054 1.76.641 1.81 1.553ZM786.874 477.656c.052.912-.678 1.695-1.63 1.749-.952.054-1.766-.642-1.818-1.554-.051-.912.679-1.695 1.631-1.748.952-.054 1.765.641 1.817 1.553ZM956.874 457.656c.052.912-.678 1.695-1.63 1.749-.952.054-1.766-.642-1.818-1.554-.051-.912.679-1.695 1.631-1.748.952-.054 1.765.641 1.817 1.553ZM1191.87 369.656c.06.912-.67 1.695-1.63 1.749-.95.054-1.76-.642-1.81-1.554-.06-.912.67-1.695 1.63-1.748.95-.054 1.76.641 1.81 1.553ZM1106.87 360.656c.06.912-.67 1.695-1.63 1.749-.95.054-1.76-.642-1.81-1.554-.06-.912.67-1.695 1.63-1.748.95-.054 1.76.641 1.81 1.553ZM1317.87 479.656c.06.912-.67 1.695-1.63 1.749-.95.054-1.76-.642-1.81-1.554-.06-.912.67-1.695 1.63-1.748.95-.054 1.76.641 1.81 1.553Z" fill="#fff"/><path d="M1146.13 143.74c-46.85 17.019-25.55-18.466 25.8-40.968 51.35-22.503 82.11-16.683 89.02-.554 8.64 20.161-67.98 24.502-114.82 41.522ZM916.126 455.74c-46.842 17.019-25.549-18.466 25.803-40.968 51.352-22.503 82.111-16.683 89.021-.554 8.64 20.161-67.981 24.502-114.824 41.522Z" stroke="#FFF73A" stroke-width="2" stroke-linecap="round" stroke-linejoin="round" stroke-dasharray=".3 28"/><path d="M1205.59 179.537c.04.838-.63 1.557-1.5 1.607-.88.049-1.62-.59-1.67-1.427-.05-.838.62-1.557 1.5-1.607.87-.049 1.62.59 1.67 1.427ZM1396.59 131.537c.04.838-.63 1.557-1.5 1.607-.88.049-1.62-.59-1.67-1.427-.05-.838.62-1.557 1.5-1.607.87-.049 1.62.59 1.67 1.427ZM1313.59 165.537c.04.838-.63 1.557-1.5 1.607-.88.049-1.62-.59-1.67-1.427-.05-.838.62-1.557 1.5-1.607.87-.049 1.62.59 1.67 1.427ZM1355.59 166.537c.04.838-.63 1.557-1.5 1.607-.88.049-1.62-.59-1.67-1.427-.05-.838.62-1.557 1.5-1.607.87-.049 1.62.59 1.67 1.427ZM1187.81 175.808c.02.38-.28.707-.68.729-.4.023-.74-.268-.76-.648a.706.706 0 0 1 .68-.73c.4-.022.74.268.76.649ZM1412.81 132.808c.02.38-.28.707-.68.729-.4.023-.74-.268-.76-.648a.706.706 0 0 1 .68-.73c.4-.022.74.268.76.649ZM1234.29 162.593a.457.457 0 0 1-.44.473.452.452 0 0 1-.49-.42c-.02-.247.18-.459.44-.473.26-.015.48.173.49.42ZM1310.29 175.593a.457.457 0 0 1-.44.473.452.452 0 0 1-.49-.42c-.02-.247.18-.459.44-.473.26-.015.48.173.49.42ZM1256.81 157.808c.02.38-.28.707-.68.729-.4.023-.74-.268-.76-.648a.706.706 0 0 1 .68-.73c.4-.022.74.268.76.649ZM1330.81 159.808c.02.38-.28.707-.68.729-.4.023-.74-.268-.76-.648a.706.706 0 0 1 .68-.73c.4-.022.74.268.76.649ZM1236.81 160.808c.02.38-.28.707-.68.729-.4.023-.74-.268-.76-.648-.02-.38.29-.707.68-.73.4-.022.74.268.76.649ZM1137.81 228.808c.02.38-.28.707-.68.729-.4.023-.74-.268-.76-.648-.02-.38.29-.707.68-.73.4-.022.74.268.76.649Z" fill="#FFF73A"/><path d="M1218.3 972.684c0 5.791-4.69 10.485-10.48 10.485s-10.49-4.694-10.49-10.485c0-5.79 4.7-10.485 10.49-10.485s10.48 4.695 10.48 10.485Z" fill="#81FEFF"/><path d="M1172.61 1007.48c0 11.21-9.46 20.29-21.14 20.29-11.67 0-21.14-9.08-21.14-20.29 0-11.199 9.47-20.281 21.14-20.281 11.68 0 21.14 9.082 21.14 20.281Z" fill="#17E6E8"/><path d="M1245.97 946.018a5.822 5.822 0 0 1-5.82 5.819 5.822 5.822 0 0 1-5.82-5.819 5.822 5.822 0 0 1 5.82-5.819c3.21 0 5.82 2.605 5.82 5.819Z" fill="#167DFF"/><path d="M1334.71 872.889c0 2.038-1.65 3.69-3.69 3.69a3.689 3.689 0 0 1-3.69-3.69c0-2.038 1.65-3.69 3.69-3.69s3.69 1.652 3.69 3.69Z" fill="#51CCFF"/><path d="M1293.68 883.876a6.669 6.669 0 0 1-6.67 6.676 6.678 6.678 0 1 1 0-13.353 6.67 6.67 0 0 1 6.67 6.677Z" fill="#ACD1FF"/><path d="M1257.37 933.716c0 .838-.68 1.517-1.52 1.517a1.518 1.518 0 1 1 0-3.034c.84 0 1.52.679 1.52 1.517Z" fill="#17E6E8"/><path d="M1277.08 903.572a2.373 2.373 0 0 1-2.38 2.373 2.37 2.37 0 0 1-2.37-2.373c0-1.31 1.06-2.373 2.37-2.373 1.32 0 2.38 1.063 2.38 2.373Z" fill="#fff"/><path d="M1215.23 942.148a2.949 2.949 0 0 1-2.95 2.948 2.949 2.949 0 1 1 0-5.897c1.63 0 2.95 1.32 2.95 2.949Z" fill="#FFF73A"/><path d="M1037.8 415.139s0-.001 0 0Zm0 0c-22.64 10.371-49.712 17.101-20.11-7.268 29.6-24.369 151.3-95.848 104.71-49.571-19.02 18.897-53.62 40.961-84.6 56.839Zm0 0c-44.882 23.005-82.142 33.022-53.325 1.596 51.705-56.387 254.875-144.633 220.335-76.564-20.27 39.936-279.95 218.264-928.81 339.925" stroke="url(#n)" stroke-width="2" stroke-linecap="round" stroke-linejoin="round"/><path d="M1086.11 386.88c-77.34 54.056-227.338 96.696-125.475 11.459C1195 202.224 1827.61 135.302 1549.96 519.913" stroke="url(#o)" stroke-width="2" stroke-linecap="round" stroke-linejoin="round"/></g><defs><linearGradient id="g" x1="1291.62" y1="225.366" x2="1521.52" y2="435.173" gradientUnits="userSpaceOnUse"><stop stop-color="#FFF73A"/><stop offset="1" stop-color="#FFF73A" stop-opacity="0"/></linearGradient><linearGradient id="h" x1="1287.93" y1="147.303" x2="1527.51" y2="286.306" gradientUnits="userSpaceOnUse"><stop stop-color="#FFF73A"/><stop offset="1" stop-color="#FFF73A" stop-opacity="0"/></linearGradient><linearGradient id="i" x1="1268.85" y1="249.117" x2="1278.61" y2="421.368" gradientUnits="userSpaceOnUse"><stop offset=".182" stop-color="#17E6E8"/><stop offset=".686" stop-color="#FFBD00"/></linearGradient><linearGradient id="j" x1="992.077" y1="315.714" x2="1006.57" y2="571.507" gradientUnits="userSpaceOnUse"><stop offset=".177" stop-color="#FFBD00"/><stop offset=".578" stop-color="#fff"/></linearGradient><linearGradient id="k" x1="1354.7" y1="264.305" x2="1207.55" y2="627.914" gradientUnits="userSpaceOnUse"><stop stop-color="#FFF73A"/><stop offset="1" stop-color="#51CCFF"/></linearGradient><linearGradient id="l" x1="1316.34" y1="272.756" x2="1349.11" y2="851.24" gradientUnits="userSpaceOnUse"><stop stop-color="#FFF73A"/><stop offset="1" stop-color="#0CB0F2"/></linearGradient><linearGradient id="n" x1="1021.34" y1="394.931" x2="1103.13" y2="556.779" gradientUnits="userSpaceOnUse"><stop stop-color="#FFBD00"/><stop offset=".359" stop-color="#FFF73A"/></linearGradient><linearGradient id="o" x1="1423.42" y1="609.968" x2="1258.74" y2="373.549" gradientUnits="userSpaceOnUse"><stop stop-color="#15114E" stop-opacity="0"/><stop offset=".555" stop-color="#51CCFF"/><stop offset="1" stop-color="#FFF73A"/></linearGradient><radialGradient id="b" cx="0" cy="0" r="1" gradientUnits="userSpaceOnUse" gradientTransform="matrix(470.38271 -378.8832 159.72578 198.29923 1064.94 389.792)"><stop offset=".036" stop-color="#FFF73A" stop-opacity=".86"/><stop offset=".37" stop-color="#FF7D9A" stop-opacity=".75"/><stop offset=".708" stop-color="#FF7D9A" stop-opacity="0"/></radialGradient><radialGradient id="d" cx="0" cy="0" r="1" gradientUnits="userSpaceOnUse" gradientTransform="rotate(175.175 654.442 183.02) scale(266.616 382.43)"><stop offset=".068" stop-color="#F78295"/><stop offset=".588" stop-color="#7F52FF" stop-opacity="0"/><stop offset="1" stop-color="#7F52FF" stop-opacity=".1"/></radialGradient><radialGradient id="f" cx="0" cy="0" r="1" gradientUnits="userSpaceOnUse" gradientTransform="rotate(128.418 500.248 615.868) scale(256.013 25.708)"><stop offset=".118" stop-color="#FFBD00" stop-opacity=".61"/><stop offset=".425" stop-color="#A67DFF" stop-opacity=".71"/><stop offset=".834" stop-color="#A67DFF" stop-opacity="0"/></radialGradient><filter id="c" x="770.195" y="215.812" width="709.148" height="543.2" filterUnits="userSpaceOnUse" color-interpolation-filters="sRGB"><feFlood flood-opacity="0" result="BackgroundImageFix"/><feBlend mode="normal" in="SourceGraphic" in2="BackgroundImageFix" result="shape"/><feGaussianBlur stdDeviation="13" result="effect1_foregroundBlur_3159_21329"/></filter><filter id="e" x="1047.08" y="511.951" width="317.307" height="308.052" filterUnits="userSpaceOnUse" color-interpolation-filters="sRGB"><feFlood flood-opacity="0" result="BackgroundImageFix"/><feBlend mode="normal" in="SourceGraphic" in2="BackgroundImageFix" result="shape"/><feGaussianBlur stdDeviation="8" result="effect1_foregroundBlur_3159_21329"/></filter><filter id="m" x="1207.21" y="484.514" width="21.662" height="23.274" filterUnits="userSpaceOnUse" color-interpolation-filters="sRGB"><feFlood flood-opacity="0" result="BackgroundImageFix"/><feBlend mode="normal" in="SourceGraphic" in2="BackgroundImageFix" result="shape"/><feGaussianBlur stdDeviation="3" result="effect1_foregroundBlur_3159_21329"/></filter><clipPath id="a"><path fill="#fff" d="M0 0h1748v1028H0z"/></clipPath></defs></svg>